<svg width="2420" height="2014" viewBox="0 0 2420 2014" fill="none" xmlns="http://www.w3.org/2000/svg">
<rect width="807" height="2014" transform="matrix(1 0 0 -1 0 2014)" fill="#16243C"/>
<path d="M807 2014H1613V1.15633e-05H807V2014Z" fill="#FE2900" fill-opacity="0.5"/>
<rect width="807" height="2014" transform="matrix(1 0 0 -1 1613 2014)" fill="#FCF5E7"/>
<path d="M1945.22 1398.78C1910.65 1398.78 1879.28 1392.27 1851.11 1379.25C1822.94 1366 1800.57 1346.94 1783.99 1322.08C1767.42 1296.98 1759.14 1266.68 1759.14 1231.17C1759.14 1199.92 1765.29 1174.59 1777.6 1155.18C1789.91 1135.53 1806.37 1120.14 1826.96 1109.01C1847.56 1097.88 1870.29 1089.6 1895.14 1084.15C1920.24 1078.47 1945.45 1073.97 1970.78 1070.66C2003.93 1066.4 2030.8 1063.2 2051.39 1061.07C2072.23 1058.7 2087.38 1054.8 2096.85 1049.35C2106.56 1043.91 2111.41 1034.44 2111.41 1020.94V1018.1C2111.41 983.064 2101.82 955.839 2082.64 936.426C2063.71 917.013 2034.94 907.307 1996.35 907.307C1956.34 907.307 1924.97 916.066 1902.25 933.585C1879.52 951.104 1863.54 969.807 1854.31 989.693L1774.76 961.284C1788.97 928.14 1807.91 902.335 1831.58 883.869C1855.49 865.167 1881.53 852.146 1909.7 844.807C1938.11 837.231 1966.05 833.443 1993.51 833.443C2011.03 833.443 2031.15 835.574 2053.88 839.835C2076.84 843.86 2098.98 852.264 2120.29 865.048C2141.83 877.832 2159.7 897.127 2173.91 922.932C2188.11 948.737 2195.22 983.301 2195.22 1026.62V1386H2111.41V1312.14H2107.15C2101.47 1323.97 2092 1336.64 2078.74 1350.13C2065.48 1363.63 2047.84 1375.11 2025.83 1384.58C2003.81 1394.05 1976.94 1398.78 1945.22 1398.78ZM1958 1323.5C1991.14 1323.5 2019.08 1316.99 2041.81 1303.97C2064.77 1290.95 2082.05 1274.14 2093.65 1253.54C2105.49 1232.95 2111.41 1211.28 2111.41 1188.56V1111.85C2107.86 1116.11 2100.05 1120.02 2087.97 1123.57C2076.13 1126.89 2062.4 1129.84 2046.78 1132.45C2031.39 1134.82 2016.36 1136.95 2001.68 1138.84C1987.24 1140.5 1975.52 1141.92 1966.52 1143.1C1944.74 1145.94 1924.38 1150.56 1905.44 1156.95C1886.74 1163.11 1871.59 1172.46 1859.99 1185.01C1848.63 1197.32 1842.94 1214.12 1842.94 1235.43C1842.94 1264.55 1853.71 1286.57 1875.26 1301.48C1897.04 1316.16 1924.62 1323.5 1958 1323.5Z" fill="#16243C"/>
<path d="M1139.22 1398.78C1104.65 1398.78 1073.28 1392.27 1045.11 1379.25C1016.94 1366 994.566 1346.94 977.994 1322.08C961.422 1296.98 953.136 1266.68 953.136 1231.17C953.136 1199.92 959.292 1174.59 971.602 1155.18C983.913 1135.53 1000.37 1120.14 1020.96 1109.01C1041.56 1097.88 1064.29 1089.6 1089.14 1084.15C1114.24 1078.47 1139.45 1073.97 1164.78 1070.66C1197.93 1066.4 1224.8 1063.2 1245.39 1061.07C1266.23 1058.7 1281.38 1054.8 1290.85 1049.35C1300.56 1043.91 1305.41 1034.44 1305.41 1020.94V1018.1C1305.41 983.064 1295.82 955.839 1276.64 936.426C1257.71 917.013 1228.94 907.307 1190.35 907.307C1150.34 907.307 1118.97 916.066 1096.25 933.585C1073.52 951.104 1057.54 969.807 1048.31 989.693L968.761 961.284C982.966 928.14 1001.91 902.335 1025.58 883.869C1049.49 865.167 1075.53 852.146 1103.7 844.807C1132.11 837.231 1160.05 833.443 1187.51 833.443C1205.03 833.443 1225.15 835.574 1247.88 839.835C1270.84 843.86 1292.98 852.264 1314.29 865.048C1335.83 877.832 1353.7 897.127 1367.91 922.932C1382.11 948.737 1389.22 983.301 1389.22 1026.62V1386H1305.41V1312.14H1301.15C1295.47 1323.97 1286 1336.64 1272.74 1350.13C1259.48 1363.63 1241.84 1375.11 1219.83 1384.58C1197.81 1394.05 1170.94 1398.78 1139.22 1398.78ZM1152 1323.5C1185.14 1323.5 1213.08 1316.99 1235.81 1303.97C1258.77 1290.95 1276.05 1274.14 1287.65 1253.54C1299.49 1232.95 1305.41 1211.28 1305.41 1188.56V1111.85C1301.86 1116.11 1294.05 1120.02 1281.97 1123.57C1270.13 1126.89 1256.4 1129.84 1240.78 1132.45C1225.39 1134.82 1210.36 1136.95 1195.68 1138.84C1181.24 1140.5 1169.52 1141.92 1160.52 1143.1C1138.74 1145.94 1118.38 1150.56 1099.44 1156.95C1080.74 1163.11 1065.59 1172.46 1053.99 1185.01C1042.63 1197.32 1036.94 1214.12 1036.94 1235.43C1036.94 1264.55 1047.71 1286.57 1069.26 1301.48C1091.04 1316.16 1118.62 1323.5 1152 1323.5Z" fill="#16243C"/>
<path d="M359.216 1368.78C324.652 1368.78 293.283 1362.27 265.111 1349.25C236.938 1336 214.566 1316.94 197.994 1292.08C181.422 1266.98 173.136 1236.68 173.136 1201.17C173.136 1169.92 179.292 1144.59 191.602 1125.18C203.913 1105.53 220.366 1090.14 240.963 1079.01C261.56 1067.88 284.287 1059.6 309.145 1054.15C334.24 1048.47 359.453 1043.97 384.784 1040.66C417.928 1036.4 444.798 1033.2 465.395 1031.07C486.228 1028.7 501.38 1024.8 510.849 1019.35C520.556 1013.91 525.409 1004.44 525.409 990.943V988.102C525.409 953.064 515.821 925.839 496.645 906.426C477.706 887.013 448.941 877.307 410.352 877.307C370.343 877.307 338.974 886.066 316.247 903.585C293.52 921.104 277.54 939.807 268.307 959.693L188.761 931.284C202.966 898.14 221.905 872.335 245.58 853.869C269.491 835.167 295.532 822.146 323.705 814.807C352.114 807.231 380.049 803.443 407.511 803.443C425.03 803.443 445.153 805.574 467.881 809.835C490.845 813.86 512.98 822.264 534.287 835.048C555.83 847.832 573.705 867.127 587.909 892.932C602.114 918.737 609.216 953.301 609.216 996.625V1356H525.409V1282.14H521.148C515.466 1293.97 505.996 1306.64 492.739 1320.13C479.481 1333.63 461.844 1345.11 439.827 1354.58C417.81 1364.05 390.939 1368.78 359.216 1368.78ZM372 1293.5C405.144 1293.5 433.08 1286.99 455.807 1273.97C478.771 1260.95 496.053 1244.14 507.653 1223.54C519.491 1202.95 525.409 1181.28 525.409 1158.56V1081.85C521.858 1086.11 514.045 1090.02 501.972 1093.57C490.134 1096.89 476.403 1099.84 460.778 1102.45C445.39 1104.82 430.357 1106.95 415.679 1108.84C401.238 1110.5 389.519 1111.92 380.523 1113.1C358.742 1115.94 338.383 1120.56 319.443 1126.95C300.741 1133.11 285.589 1142.46 273.989 1155.01C262.625 1167.32 256.943 1184.12 256.943 1205.43C256.943 1234.55 267.715 1256.57 289.259 1271.48C311.039 1286.16 338.619 1293.5 372 1293.5Z" fill="#FCF5E7"/>
</svg>
